<svg width="710" height="165" viewBox="0 0 710 165" fill="none" xmlns="http://www.w3.org/2000/svg">
<path d="M61.7443 164.286C49.0256 164.286 38.0937 161.685 28.9489 156.482C19.8565 151.226 12.8402 143.92 7.89985 134.565C3.01207 125.158 0.568176 114.252 0.568176 101.849C0.568176 89.3927 3.01207 78.4872 7.89985 69.1321C12.8402 59.7244 19.8565 52.419 28.9489 47.2159C38.0937 41.9602 49.0256 39.3324 61.7443 39.3324C74.4631 39.3324 85.3686 41.9602 94.4609 47.2159C103.606 52.419 110.622 59.7244 115.51 69.1321C120.45 78.4872 122.92 89.3927 122.92 101.849C122.92 114.252 120.45 125.158 115.51 134.565C110.622 143.92 103.606 151.226 94.4609 156.482C85.3686 161.685 74.4631 164.286 61.7443 164.286ZM61.9808 135.196C66.6058 135.196 70.5213 133.777 73.7273 130.939C76.9332 128.101 79.3771 124.159 81.0589 119.114C82.7933 114.068 83.6605 108.234 83.6605 101.612C83.6605 94.8849 82.7933 88.9986 81.0589 83.9531C79.3771 78.9077 76.9332 74.9659 73.7273 72.1278C70.5213 69.2898 66.6058 67.8707 61.9808 67.8707C57.1981 67.8707 53.1513 69.2898 49.8402 72.1278C46.5817 74.9659 44.0852 78.9077 42.3508 83.9531C40.669 88.9986 39.8281 94.8849 39.8281 101.612C39.8281 108.234 40.669 114.068 42.3508 119.114C44.0852 124.159 46.5817 128.101 49.8402 130.939C53.1513 133.777 57.1981 135.196 61.9808 135.196Z" fill="#ED2590"/>
<path d="M142.669 162V40.9091H180.115V62.9829H181.377C183.584 54.9943 187.184 49.0554 192.177 45.1662C197.17 41.2244 202.978 39.2535 209.6 39.2535C211.387 39.2535 213.226 39.3849 215.118 39.6477C217.01 39.8579 218.771 40.1996 220.4 40.6726V74.1776C218.561 73.5469 216.143 73.0476 213.147 72.6797C210.204 72.3118 207.576 72.1278 205.264 72.1278C200.691 72.1278 196.566 73.1527 192.887 75.2024C189.26 77.1996 186.396 80.0114 184.294 83.6378C182.244 87.2116 181.219 91.4162 181.219 96.2514V162H142.669Z" fill="#ED2590"/>
<path d="M270.874 130.229L271.032 84.2685H276.393L310.45 40.9091H354.124L303.512 103.031H293.342L270.874 130.229ZM236.108 162V0.545441H274.659V162H236.108ZM311.317 162L279.625 111.703L305.01 84.3473L355.859 162H311.317Z" fill="#ED2590"/>
<path d="M446.046 109.732V40.9091H484.518V162H447.781V139.453H446.519C443.839 146.864 439.267 152.75 432.802 157.112C426.39 161.422 418.638 163.577 409.546 163.577C401.294 163.577 394.041 161.685 387.787 157.901C381.533 154.116 376.671 148.835 373.203 142.055C369.734 135.222 367.973 127.234 367.921 118.089V40.9091H406.471V110.521C406.524 117.09 408.258 122.267 411.674 126.051C415.09 129.835 419.742 131.727 425.628 131.727C429.465 131.727 432.907 130.886 435.955 129.205C439.056 127.47 441.5 124.974 443.287 121.715C445.127 118.404 446.046 114.41 446.046 109.732Z" fill="#ED2590"/>
<path d="M577.406 40.9091V69.2898H501.014V40.9091H577.406ZM517.018 11.8977H555.568V123.923C555.568 126.288 555.936 128.206 556.672 129.678C557.46 131.097 558.59 132.121 560.062 132.752C561.533 133.33 563.294 133.619 565.344 133.619C566.815 133.619 568.366 133.488 569.995 133.225C571.677 132.91 572.938 132.647 573.779 132.437L579.613 160.266C577.773 160.791 575.172 161.448 571.808 162.237C568.497 163.025 564.529 163.524 559.904 163.734C550.864 164.155 543.112 163.104 536.648 160.581C530.236 158.006 525.322 154.011 521.906 148.598C518.542 143.185 516.913 136.379 517.018 128.18V11.8977Z" fill="#ED2590"/>
<path d="M652.378 164.286C639.712 164.286 628.78 161.79 619.582 156.797C610.438 151.751 603.395 144.577 598.455 135.275C593.567 125.92 591.123 114.804 591.123 101.928C591.123 89.419 593.593 78.4872 598.533 69.1321C603.474 59.7244 610.438 52.419 619.425 47.2159C628.412 41.9602 639.002 39.3324 651.195 39.3324C659.815 39.3324 667.698 40.6726 674.846 43.353C681.994 46.0334 688.169 50.0014 693.372 55.2571C698.575 60.5128 702.622 67.0035 705.513 74.7294C708.403 82.4027 709.849 91.206 709.849 101.139V110.757H604.604V88.3679H673.979C673.926 84.2685 672.954 80.6158 671.062 77.4098C669.17 74.2038 666.568 71.7074 663.257 69.9204C659.999 68.081 656.241 67.1612 651.984 67.1612C647.674 67.1612 643.811 68.1335 640.395 70.0781C636.979 71.9702 634.272 74.5717 632.275 77.8828C630.278 81.1413 629.227 84.8466 629.121 88.9986V111.782C629.121 116.722 630.094 121.058 632.038 124.79C633.983 128.469 636.742 131.333 640.316 133.383C643.89 135.433 648.147 136.457 653.087 136.457C656.504 136.457 659.604 135.984 662.39 135.038C665.175 134.092 667.567 132.7 669.564 130.86C671.561 129.021 673.059 126.761 674.058 124.08L709.455 125.105C707.983 133.041 704.751 139.952 699.758 145.839C694.817 151.673 688.327 156.219 680.286 159.477C672.244 162.683 662.942 164.286 652.378 164.286Z" fill="#ED2590"/>
</svg>
